<svg width="308" height="43" viewBox="0 0 308 43" fill="none" xmlns="http://www.w3.org/2000/svg">
<path d="M0.929932 42V0.877998H6.14993V23.614L27.3779 0.819999H33.0039L16.4739 18.974L33.9319 42H28.0739L13.1679 22.106L6.14993 29.414V42H0.929932Z" fill="#122947"/>
<path d="M53.1476 42.29C50.2476 42.29 47.6183 41.71 45.2596 40.55C42.9009 39.39 40.8516 37.824 39.1116 35.852C37.4103 33.8413 36.0956 31.5987 35.1676 29.124C34.2396 26.6107 33.7756 24.0393 33.7756 21.41C33.7756 18.6647 34.2589 16.0547 35.2256 13.58C36.2309 11.0667 37.6036 8.84333 39.3436 6.91C41.1223 4.938 43.1909 3.39133 45.5496 2.27C47.9083 1.11 50.4796 0.529999 53.2636 0.529999C56.1636 0.529999 58.7929 1.12933 61.1516 2.328C63.5103 3.52666 65.5403 5.13133 67.2416 7.142C68.9429 9.15267 70.2576 11.3953 71.1856 13.87C72.1136 16.3447 72.5776 18.8773 72.5776 21.468C72.5776 24.2133 72.0943 26.8427 71.1276 29.356C70.1609 31.8307 68.7883 34.054 67.0096 36.026C65.2696 37.9593 63.2203 39.4867 60.8616 40.608C58.5029 41.7293 55.9316 42.29 53.1476 42.29ZM39.0536 21.41C39.0536 23.498 39.3823 25.528 40.0396 27.5C40.7356 29.4333 41.7023 31.154 42.9396 32.662C44.1769 34.17 45.6656 35.3687 47.4056 36.258C49.1456 37.1473 51.0789 37.592 53.2056 37.592C55.4096 37.592 57.3816 37.128 59.1216 36.2C60.8616 35.272 62.3309 34.0347 63.5296 32.488C64.7669 30.9413 65.6949 29.2013 66.3136 27.268C66.9709 25.3347 67.2996 23.382 67.2996 21.41C67.2996 19.322 66.9516 17.3113 66.2556 15.378C65.5983 13.4447 64.6316 11.724 63.3556 10.216C62.1183 8.66933 60.6296 7.47067 58.8896 6.62C57.1883 5.73067 55.2936 5.286 53.2056 5.286C51.0016 5.286 49.0296 5.75 47.2896 6.678C45.5496 7.56733 44.0609 8.78533 42.8236 10.332C41.6249 11.8787 40.6969 13.6187 40.0396 15.552C39.3823 17.4467 39.0536 19.3993 39.0536 21.41Z" fill="#122947"/>
<path d="M104.016 9.462C103.552 8.92066 102.934 8.39867 102.16 7.896C101.387 7.39333 100.517 6.94867 99.5503 6.562C98.5837 6.13667 97.5203 5.808 96.3603 5.576C95.239 5.30533 94.0597 5.17 92.8223 5.17C89.6517 5.17 87.3123 5.76933 85.8043 6.968C84.2963 8.16667 83.5423 9.81 83.5423 11.898C83.5423 13.3673 83.929 14.5273 84.7023 15.378C85.4757 16.2287 86.655 16.9247 88.2403 17.466C89.8643 18.0073 91.9137 18.568 94.3883 19.148C97.2497 19.7667 99.7243 20.5207 101.812 21.41C103.9 22.2993 105.505 23.498 106.626 25.006C107.748 26.4753 108.308 28.4473 108.308 30.922C108.308 32.894 107.922 34.6147 107.148 36.084C106.414 37.5147 105.37 38.7133 104.016 39.68C102.663 40.608 101.078 41.304 99.2603 41.768C97.443 42.1933 95.471 42.406 93.3443 42.406C91.2563 42.406 89.207 42.1933 87.1963 41.768C85.2243 41.304 83.349 40.6467 81.5703 39.796C79.7917 38.9453 78.129 37.882 76.5823 36.606L79.0763 32.198C79.695 32.8553 80.4877 33.5127 81.4543 34.17C82.4597 34.7887 83.581 35.3687 84.8183 35.91C86.0943 36.4513 87.467 36.896 88.9363 37.244C90.4057 37.5533 91.9137 37.708 93.4603 37.708C96.399 37.708 98.6803 37.186 100.304 36.142C101.928 35.0593 102.74 33.4933 102.74 31.444C102.74 29.8973 102.276 28.66 101.348 27.732C100.459 26.804 99.125 26.0307 97.3463 25.412C95.5677 24.7933 93.4023 24.1747 90.8503 23.556C88.0663 22.86 85.727 22.106 83.8323 21.294C81.9377 20.4433 80.507 19.3413 79.5403 17.988C78.6123 16.6347 78.1483 14.8753 78.1483 12.71C78.1483 10.0807 78.7863 7.85733 80.0623 6.04C81.3383 4.22267 83.0977 2.85 85.3403 1.922C87.583 0.993999 90.1157 0.529999 92.9383 0.529999C94.7943 0.529999 96.515 0.723332 98.1003 1.11C99.7243 1.49666 101.232 2.038 102.624 2.734C104.016 3.43 105.292 4.26133 106.452 5.228L104.016 9.462Z" fill="#122947"/>
<path d="M150.786 42V10.564L137.214 34.75H134.024L120.394 10.564V42H115.174V0.819999H120.684L135.59 27.558L150.554 0.819999H156.006V42H150.786Z" fill="#122947"/>
<path d="M193.823 37.36V42H165.867V0.819999H193.301V5.46H171.087V18.8H190.401V23.15H171.087V37.36H193.823Z" fill="#122947"/>
<path d="M230.681 5.46H216.471V42H211.251V5.46H197.041V0.819999H230.681V5.46Z" fill="#122947"/>
<path d="M252.069 42.29C249.169 42.29 246.54 41.71 244.181 40.55C241.823 39.39 239.773 37.824 238.033 35.852C236.332 33.8413 235.017 31.5987 234.089 29.124C233.161 26.6107 232.697 24.0393 232.697 21.41C232.697 18.6647 233.181 16.0547 234.147 13.58C235.153 11.0667 236.525 8.84333 238.265 6.91C240.044 4.938 242.113 3.39133 244.471 2.27C246.83 1.11 249.401 0.529999 252.185 0.529999C255.085 0.529999 257.715 1.12933 260.073 2.328C262.432 3.52666 264.462 5.13133 266.163 7.142C267.865 9.15267 269.179 11.3953 270.107 13.87C271.035 16.3447 271.499 18.8773 271.499 21.468C271.499 24.2133 271.016 26.8427 270.049 29.356C269.083 31.8307 267.71 34.054 265.931 36.026C264.191 37.9593 262.142 39.4867 259.783 40.608C257.425 41.7293 254.853 42.29 252.069 42.29ZM237.975 21.41C237.975 23.498 238.304 25.528 238.961 27.5C239.657 29.4333 240.624 31.154 241.861 32.662C243.099 34.17 244.587 35.3687 246.327 36.258C248.067 37.1473 250.001 37.592 252.127 37.592C254.331 37.592 256.303 37.128 258.043 36.2C259.783 35.272 261.253 34.0347 262.451 32.488C263.689 30.9413 264.617 29.2013 265.235 27.268C265.893 25.3347 266.221 23.382 266.221 21.41C266.221 19.322 265.873 17.3113 265.177 15.378C264.52 13.4447 263.553 11.724 262.277 10.216C261.04 8.66933 259.551 7.47067 257.811 6.62C256.11 5.73067 254.215 5.286 252.127 5.286C249.923 5.286 247.951 5.75 246.211 6.678C244.471 7.56733 242.983 8.78533 241.745 10.332C240.547 11.8787 239.619 13.6187 238.961 15.552C238.304 17.4467 237.975 19.3993 237.975 21.41Z" fill="#122947"/>
<path d="M302.938 9.462C302.474 8.92066 301.856 8.39867 301.082 7.896C300.309 7.39333 299.439 6.94867 298.472 6.562C297.506 6.13667 296.442 5.808 295.282 5.576C294.161 5.30533 292.982 5.17 291.744 5.17C288.574 5.17 286.234 5.76933 284.726 6.968C283.218 8.16667 282.464 9.81 282.464 11.898C282.464 13.3673 282.851 14.5273 283.624 15.378C284.398 16.2287 285.577 16.9247 287.162 17.466C288.786 18.0073 290.836 18.568 293.31 19.148C296.172 19.7667 298.646 20.5207 300.734 21.41C302.822 22.2993 304.427 23.498 305.548 25.006C306.67 26.4753 307.23 28.4473 307.23 30.922C307.23 32.894 306.844 34.6147 306.07 36.084C305.336 37.5147 304.292 38.7133 302.938 39.68C301.585 40.608 300 41.304 298.182 41.768C296.365 42.1933 294.393 42.406 292.266 42.406C290.178 42.406 288.129 42.1933 286.118 41.768C284.146 41.304 282.271 40.6467 280.492 39.796C278.714 38.9453 277.051 37.882 275.504 36.606L277.998 32.198C278.617 32.8553 279.41 33.5127 280.376 34.17C281.382 34.7887 282.503 35.3687 283.74 35.91C285.016 36.4513 286.389 36.896 287.858 37.244C289.328 37.5533 290.836 37.708 292.382 37.708C295.321 37.708 297.602 37.186 299.226 36.142C300.85 35.0593 301.662 33.4933 301.662 31.444C301.662 29.8973 301.198 28.66 300.27 27.732C299.381 26.804 298.047 26.0307 296.268 25.412C294.49 24.7933 292.324 24.1747 289.772 23.556C286.988 22.86 284.649 22.106 282.754 21.294C280.86 20.4433 279.429 19.3413 278.462 17.988C277.534 16.6347 277.07 14.8753 277.07 12.71C277.07 10.0807 277.708 7.85733 278.984 6.04C280.26 4.22267 282.02 2.85 284.262 1.922C286.505 0.993999 289.038 0.529999 291.86 0.529999C293.716 0.529999 295.437 0.723332 297.022 1.11C298.646 1.49666 300.154 2.038 301.546 2.734C302.938 3.43 304.214 4.26133 305.374 5.228L302.938 9.462Z" fill="#122947"/>
</svg>
