<svg width="164" height="22" viewBox="0 0 164 22" fill="none" xmlns="http://www.w3.org/2000/svg">
<path d="M0 21.7867V0.182825H2.7949V12.1274L14.1608 0.152354H17.1731L8.3226 9.68975L17.67 21.7867H14.5335L6.5525 11.3352L2.7949 15.1745V21.7867H0Z" fill="#122947"/>
<path d="M27.9585 21.9391C26.4058 21.9391 24.998 21.6343 23.7351 21.0249C22.4722 20.4155 21.375 19.5928 20.4433 18.5568C19.5324 17.5005 18.8285 16.3223 18.3316 15.0222C17.8347 13.7018 17.5863 12.3509 17.5863 10.9695C17.5863 9.52724 17.8451 8.15605 18.3627 6.85596C18.9009 5.53555 19.6359 4.3675 20.5675 3.3518C21.5199 2.31579 22.6275 1.50323 23.8904 0.914126C25.1533 0.304709 26.53 0 28.0206 0C29.5733 0 30.9811 0.314866 32.244 0.944599C33.5069 1.57433 34.5938 2.41736 35.5048 3.47368C36.4157 4.53001 37.1196 5.70822 37.6165 7.00831C38.1133 8.3084 38.3618 9.63896 38.3618 11C38.3618 12.4423 38.103 13.8236 37.5854 15.144C37.0678 16.4441 36.3329 17.6122 35.3805 18.6482C34.4489 19.6639 33.3516 20.4663 32.0888 21.0554C30.8259 21.6445 29.4491 21.9391 27.9585 21.9391ZM20.4123 10.9695C20.4123 12.0665 20.5882 13.133 20.9402 14.169C21.3128 15.1847 21.8304 16.0886 22.4929 16.8809C23.1554 17.6731 23.9525 18.3029 24.8841 18.7701C25.8157 19.2373 26.8509 19.4709 27.9896 19.4709C29.1696 19.4709 30.2255 19.2271 31.1571 18.7396C32.0888 18.2521 32.8755 17.602 33.5173 16.7895C34.1798 15.9769 34.6766 15.0628 35.0079 14.0471C35.3598 13.0314 35.5358 12.0055 35.5358 10.9695C35.5358 9.87258 35.3495 8.81625 34.9768 7.80055C34.6249 6.78486 34.1073 5.88089 33.4241 5.08864C32.7616 4.27609 31.9645 3.64635 31.0329 3.19945C30.122 2.73223 29.1075 2.49862 27.9896 2.49862C26.8095 2.49862 25.7536 2.74238 24.822 3.22992C23.8904 3.69714 23.0933 4.33703 22.4308 5.14958C21.789 5.96214 21.2921 6.87627 20.9402 7.89197C20.5882 8.88735 20.4123 9.9132 20.4123 10.9695Z" fill="#122947"/>
<path d="M55.1948 4.69252C54.9463 4.40812 54.6151 4.13389 54.201 3.86981C53.787 3.60573 53.3211 3.37211 52.8036 3.16898C52.286 2.94552 51.7167 2.77285 51.0956 2.65097C50.4952 2.50877 49.8637 2.43767 49.2012 2.43767C47.5036 2.43767 46.2511 2.75254 45.4436 3.38227C44.6362 4.012 44.2325 4.87535 44.2325 5.9723C44.2325 6.74423 44.4395 7.35365 44.8536 7.80055C45.2677 8.24746 45.8991 8.61311 46.7479 8.89751C47.6175 9.1819 48.7147 9.47645 50.0397 9.78116C51.5717 10.1062 52.8967 10.5023 54.0147 10.9695C55.1326 11.4367 55.9918 12.0665 56.5922 12.8587C57.1926 13.6307 57.4928 14.6667 57.4928 15.9668C57.4928 17.0028 57.2858 17.9067 56.8717 18.6787C56.4783 19.4303 55.9194 20.06 55.1948 20.5679C54.4702 21.0554 53.6213 21.4211 52.6483 21.6648C51.6752 21.8883 50.6194 22 49.4807 22C48.3628 22 47.2655 21.8883 46.189 21.6648C45.1331 21.4211 44.129 21.0757 43.1767 20.6288C42.2243 20.1819 41.3341 19.6233 40.506 18.9529L41.8413 16.6371C42.1726 16.9825 42.597 17.3278 43.1146 17.6731C43.6528 17.9982 44.2532 18.3029 44.9157 18.5873C45.5989 18.8717 46.3339 19.1053 47.1206 19.2881C47.9073 19.4506 48.7147 19.5319 49.5428 19.5319C51.1163 19.5319 52.3377 19.2576 53.2073 18.7091C54.0768 18.1404 54.5116 17.3176 54.5116 16.241C54.5116 15.4284 54.2631 14.7784 53.7663 14.2909C53.2901 13.8033 52.5758 13.397 51.6235 13.072C50.6711 12.747 49.5118 12.422 48.1454 12.097C46.6548 11.7313 45.4022 11.3352 44.3878 10.9086C43.3733 10.4617 42.6073 9.88273 42.0898 9.17174C41.5929 8.46076 41.3445 7.53647 41.3445 6.39889C41.3445 5.01754 41.6861 3.84949 42.3692 2.89474C43.0524 1.93998 43.9944 1.21884 45.1952 0.731302C46.396 0.243767 47.752 0 49.2633 0C50.2571 0 51.1784 0.10157 52.0272 0.304709C52.8967 0.507848 53.7041 0.792243 54.4494 1.15789C55.1948 1.52355 55.878 1.9603 56.499 2.46814L55.1948 4.69252Z" fill="#122947"/>
<path d="M80.2363 21.7867V5.27147L72.9696 17.9778H71.2616L63.9638 5.27147V21.7867H61.1689V0.152354H64.119L72.1 14.1994L80.1121 0.152354H83.0312V21.7867H80.2363Z" fill="#122947"/>
<path d="M103.279 19.349V21.7867H88.3112V0.152354H103V2.59003H91.1061V9.59834H101.447V11.8837H91.1061V19.349H103.279Z" fill="#122947"/>
<path d="M123.014 2.59003H115.405V21.7867H112.61V2.59003H105.002V0.152354H123.014V2.59003Z" fill="#122947"/>
<path d="M134.466 21.9391C132.913 21.9391 131.505 21.6343 130.242 21.0249C128.979 20.4155 127.882 19.5928 126.951 18.5568C126.04 17.5005 125.336 16.3223 124.839 15.0222C124.342 13.7018 124.094 12.3509 124.094 10.9695C124.094 9.52724 124.352 8.15605 124.87 6.85596C125.408 5.53555 126.143 4.3675 127.075 3.3518C128.027 2.31579 129.135 1.50323 130.398 0.914126C131.66 0.304709 133.037 0 134.528 0C136.081 0 137.488 0.314866 138.751 0.944599C140.014 1.57433 141.101 2.41736 142.012 3.47368C142.923 4.53001 143.627 5.70822 144.124 7.00831C144.621 8.3084 144.869 9.63896 144.869 11C144.869 12.4423 144.61 13.8236 144.093 15.144C143.575 16.4441 142.84 17.6122 141.888 18.6482C140.956 19.6639 139.859 20.4663 138.596 21.0554C137.333 21.6445 135.956 21.9391 134.466 21.9391ZM126.919 10.9695C126.919 12.0665 127.095 13.133 127.447 14.169C127.82 15.1847 128.338 16.0886 129 16.8809C129.663 17.6731 130.46 18.3029 131.391 18.7701C132.323 19.2373 133.358 19.4709 134.497 19.4709C135.677 19.4709 136.733 19.2271 137.664 18.7396C138.596 18.2521 139.383 17.602 140.024 16.7895C140.687 15.9769 141.184 15.0628 141.515 14.0471C141.867 13.0314 142.043 12.0055 142.043 10.9695C142.043 9.87258 141.857 8.81625 141.484 7.80055C141.132 6.78486 140.615 5.88089 139.931 5.08864C139.269 4.27609 138.472 3.64635 137.54 3.19945C136.629 2.73223 135.615 2.49862 134.497 2.49862C133.317 2.49862 132.261 2.74238 131.329 3.22992C130.398 3.69714 129.601 4.33703 128.938 5.14958C128.296 5.96214 127.799 6.87627 127.447 7.89197C127.095 8.88735 126.919 9.9132 126.919 10.9695Z" fill="#122947"/>
<path d="M161.702 4.69252C161.454 4.40812 161.122 4.13389 160.708 3.86981C160.294 3.60573 159.828 3.37211 159.311 3.16898C158.793 2.94552 158.224 2.77285 157.603 2.65097C157.002 2.50877 156.371 2.43767 155.708 2.43767C154.011 2.43767 152.758 2.75254 151.951 3.38227C151.143 4.012 150.74 4.87535 150.74 5.9723C150.74 6.74423 150.947 7.35365 151.361 7.80055C151.775 8.24746 152.406 8.61311 153.255 8.89751C154.125 9.1819 155.222 9.47645 156.547 9.78116C158.079 10.1062 159.404 10.5023 160.522 10.9695C161.64 11.4367 162.499 12.0665 163.099 12.8587C163.7 13.6307 164 14.6667 164 15.9668C164 17.0028 163.793 17.9067 163.379 18.6787C162.986 19.4303 162.427 20.06 161.702 20.5679C160.977 21.0554 160.129 21.4211 159.155 21.6648C158.182 21.8883 157.127 22 155.988 22C154.87 22 153.773 21.8883 152.696 21.6648C151.64 21.4211 150.636 21.0757 149.684 20.6288C148.732 20.1819 147.841 19.6233 147.013 18.9529L148.349 16.6371C148.68 16.9825 149.104 17.3278 149.622 17.6731C150.16 17.9982 150.76 18.3029 151.423 18.5873C152.106 18.8717 152.841 19.1053 153.628 19.2881C154.415 19.4506 155.222 19.5319 156.05 19.5319C157.623 19.5319 158.845 19.2576 159.714 18.7091C160.584 18.1404 161.019 17.3176 161.019 16.241C161.019 15.4284 160.77 14.7784 160.273 14.2909C159.797 13.8033 159.083 13.397 158.131 13.072C157.178 12.747 156.019 12.422 154.653 12.097C153.162 11.7313 151.909 11.3352 150.895 10.9086C149.881 10.4617 149.115 9.88273 148.597 9.17174C148.1 8.46076 147.852 7.53647 147.852 6.39889C147.852 5.01754 148.193 3.84949 148.876 2.89474C149.56 1.93998 150.502 1.21884 151.702 0.731302C152.903 0.243767 154.259 0 155.771 0C156.764 0 157.686 0.10157 158.534 0.304709C159.404 0.507848 160.211 0.792243 160.957 1.15789C161.702 1.52355 162.385 1.9603 163.006 2.46814L161.702 4.69252Z" fill="#122947"/>
</svg>
